<svg width="100" height="100" viewBox="0 0 100 100" fill="none" xmlns="http://www.w3.org/2000/svg">
<rect width="100" height="100" fill="black"/>
<path d="M14.9355 49.842V31.5137H39.1404H63.3452L63.3476 33.0014C63.3476 34.9818 63.691 36.1077 64.6091 37.1502C67.0057 39.8757 71.2052 39.2877 72.9055 35.9863C73.2346 35.346 73.361 34.6081 73.361 33.3084V31.5137H79.6805H86V49.842V68.1703H79.7019H73.4015L73.3228 65.471C73.2489 62.9836 73.1917 62.7004 72.5907 61.8411C71.6416 60.4891 70.4612 59.775 68.9612 59.6512C67.392 59.5227 66.1854 59.9011 65.0765 60.8747C63.7411 62.0434 63.3571 63.1502 63.35 65.8495L63.3452 68.1703H39.1404H14.9355V49.842ZM47.4773 61.6506C56.327 58.8443 59.0956 47.8544 52.614 41.261C51.145 39.7662 49.7905 38.9045 47.7063 38.1357C46.4137 37.6596 45.7532 37.6072 39.8558 37.5215C32.8066 37.4168 31.4473 37.5739 28.8599 38.795C27.2645 39.5496 24.9084 41.6799 23.852 43.3223C19.4093 50.2395 23.1461 59.6869 31.1778 61.8435C32.146 62.1029 34.0919 62.191 39.0712 62.2029C45.405 62.2195 45.7556 62.1957 47.4773 61.6506Z" fill="white"/>
</svg>
