<svg width="129" height="25" viewBox="0 0 129 25" fill="none" xmlns="http://www.w3.org/2000/svg">
<path d="M7.86438 24.1225C6.20244 23.7527 4.48001 22.7972 3.23544 21.5549C2.33869 20.6583 2.006 20.1829 1.38447 18.8968C0.316837 16.687 0.0718557 15.4779 0.0930269 12.4998C0.114198 9.62738 0.369765 8.45153 1.45857 6.23568C2.42338 4.27191 4.03088 2.64021 5.89848 1.73153C7.90068 0.756438 8.77172 0.578325 11.4937 0.590401C13.5337 0.597948 13.995 0.647759 15.049 0.969269C17.644 1.76172 19.6386 3.33606 20.6367 5.37682C20.927 5.97455 21.228 6.7504 21.3036 7.10361L21.4427 7.74512H18.9248H16.4085L15.9715 6.9104C15.4603 5.9338 14.9068 5.42814 13.7621 4.89229C13.0438 4.55719 12.7247 4.50285 11.4181 4.50134C9.52784 4.49983 8.57967 4.8138 7.48935 5.807C5.94083 7.21833 5.26032 9.20323 5.24671 12.3489C5.23461 15.3496 5.89092 17.4055 7.3094 18.8213C8.85338 20.3625 11.3985 20.8138 13.7001 19.9534C15.1987 19.3934 16.2346 17.8146 16.3631 15.8961L16.4085 15.2168L13.8755 15.1761L11.3425 15.1338V13.1006V11.0659H16.3329H21.3232V17.5564V24.047H19.3573H17.3914L17.3763 22.9527C17.3688 22.3504 17.3173 21.2953 17.2629 20.6055L17.1646 19.3542L16.4841 20.3006C15.4528 21.7361 13.9572 23.1534 12.8547 23.7406C11.9459 24.2236 11.7584 24.2659 10.3596 24.3021C9.44618 24.3247 8.45869 24.2538 7.86438 24.1225ZM78.4538 19.8583L78.41 15.5187L74.3648 8.36097C72.1403 4.42285 70.3195 1.18059 70.3195 1.15342C70.3195 1.12625 71.5974 1.10361 73.158 1.10361H75.9965L77.5813 4.28851C78.6519 6.43946 79.3249 7.61229 79.6545 7.90361C80.521 8.66738 81.8942 8.67795 82.7335 7.92625C83.0057 7.68172 83.8449 6.24474 84.8203 4.34889L86.452 1.17908L89.1377 1.13833L91.822 1.09606L91.521 1.59116C91.3562 1.86285 89.478 5.13531 87.3488 8.8621L83.476 15.641V19.9187V24.1979H80.9868H78.4992L78.4538 19.8583ZM93.7591 12.6508V1.10361L99.241 1.10663C103.469 1.10814 104.962 1.15946 105.768 1.33002C109.397 2.09682 111.603 4.70361 111.603 8.2221C111.603 11.7496 109.824 14.1029 106.311 15.2213C105.657 15.4296 104.756 15.5006 102.114 15.5564L98.7495 15.6274V19.9127V24.1979H96.2543H93.7591V12.6508ZM104.526 11.2938C107.145 10.367 107.223 6.59644 104.647 5.4221C104.065 5.15644 103.592 5.10361 101.358 5.05531L98.7495 4.99795V8.23267C98.7495 10.0123 98.8009 11.5217 98.8629 11.5866C99.0761 11.8085 103.758 11.5655 104.526 11.2938ZM113.267 12.6508V1.10361H121.055H128.843V3.13983V5.17455L123.512 5.21531L118.182 5.25455V7.66965V10.0847L123.512 10.124L128.843 10.1647V12.1979V14.2312L123.512 14.2719L118.182 14.3112L118.141 17.2168L118.1 20.1225H123.471H128.843V22.1602V24.1979H121.055H113.267V12.6508ZM23.7428 12.4244V0.801721H39.092H54.4411L54.4426 1.74512C54.4426 3.00097 54.6604 3.71493 55.2426 4.37606C56.7624 6.10436 59.4254 5.73153 60.5036 3.63795C60.7123 3.23191 60.7925 2.76399 60.7925 1.93983V0.801721H64.7999H68.8073V12.4244V24.047H64.8135H60.8182L60.7683 22.3353C60.7214 20.7579 60.6851 20.5783 60.304 20.0334C59.7022 19.1761 58.9536 18.7232 58.0024 18.6447C57.0074 18.5632 56.2422 18.8032 55.539 19.4206C54.6921 20.1617 54.4487 20.8636 54.4441 22.5753L54.4411 24.047H39.092H23.7428V12.4244ZM44.3787 19.9127C49.9906 18.133 51.7463 11.164 47.6361 6.98285C46.7045 6.03493 45.8456 5.48851 44.5239 5.00097C43.7043 4.69908 43.2854 4.66587 39.5456 4.61153C35.0755 4.54512 34.2135 4.64474 32.5727 5.41908C31.561 5.89757 30.067 7.24851 29.397 8.29002C26.5798 12.6764 28.9494 18.6674 34.0426 20.0349C34.6566 20.1995 35.8906 20.2553 39.0481 20.2629C43.0646 20.2734 43.2869 20.2583 44.3787 19.9127Z" fill="black"/>
</svg>
