<svg width="21" height="18" viewBox="0 0 21 18" fill="none" xmlns="http://www.w3.org/2000/svg">
<path d="M7 4C7 5.10457 6.10457 6 5 6C3.89543 6 3 5.10457 3 4C3 2.89543 3.89543 2 5 2C6.10457 2 7 2.89543 7 4ZM1 4C1 6.20914 2.79086 8 5 8C7.20914 8 9 6.20914 9 4C9 1.79086 7.20914 0 5 0C2.79086 0 1 1.79086 1 4ZM7.5 13.5C7.5 12.1193 6.38071 11 5 11C3.61929 11 2.5 12.1193 2.5 13.5V16H7.5V13.5ZM9.5 18H0.5V13.5C0.5 11.0147 2.51472 9 5 9C7.48528 9 9.5 11.0147 9.5 13.5V18ZM18 4C18 5.10457 17.1046 6 16 6C14.8954 6 14 5.10457 14 4C14 2.89543 14.8954 2 16 2C17.1046 2 18 2.89543 18 4ZM12 4C12 6.20914 13.7909 8 16 8C18.2091 8 20 6.20914 20 4C20 1.79086 18.2091 0 16 0C13.7909 0 12 1.79086 12 4ZM18.5 13.5C18.5 12.1193 17.3807 11 16 11C14.6193 11 13.5 12.1193 13.5 13.5V16H18.5V13.5ZM11.5 16V13.5C11.5 11.0147 13.5147 9 16 9C18.4853 9 20.5 11.0147 20.5 13.5V18H11.5V16Z" fill="#606060"/>
</svg>
