<svg width="21" height="18" viewBox="0 0 21 18" fill="none" xmlns="http://www.w3.org/2000/svg">
<path d="M1 4C1 6.20914 2.79086 8 5 8C7.20914 8 9 6.20914 9 4C9 1.79086 7.20914 0 5 0C2.79086 0 1 1.79086 1 4ZM0.5 18V13.5C0.5 11.0147 2.51472 9 5 9C7.48528 9 9.5 11.0147 9.5 13.5V18H0.5ZM16 8C13.7909 8 12 6.20914 12 4C12 1.79086 13.7909 0 16 0C18.2091 0 20 1.79086 20 4C20 6.20914 18.2091 8 16 8ZM11.5 18V13.5C11.5 11.0147 13.5147 9 16 9C18.4853 9 20.5 11.0147 20.5 13.5V18H11.5Z" fill="#0075FF"/>
</svg>
