<svg width="19" height="20" viewBox="0 0 19 20" fill="none" xmlns="http://www.w3.org/2000/svg">
<path d="M9.50116 0.833496C14.5637 0.833496 18.6678 4.93755 18.6678 10.0002C18.6678 15.0627 14.5637 19.1668 9.50116 19.1668C7.82008 19.1668 6.24471 18.7144 4.8902 17.9245L0.338304 19.1668L1.5776 14.6124C0.787269 13.2576 0.334473 11.6818 0.334473 10.0002C0.334473 4.93755 4.43853 0.833496 9.50116 0.833496ZM6.1932 5.69947C6.07459 5.7078 5.95831 5.73676 5.85243 5.79093C5.773 5.83157 5.69926 5.8903 5.58341 5.9997C5.474 6.103 5.4106 6.19322 5.34379 6.2802C5.0049 6.72143 4.82276 7.26304 4.82614 7.81939C4.82798 8.26913 4.9448 8.7062 5.12929 9.1143C5.50341 9.94186 6.12038 10.8167 6.93535 11.6281C7.13112 11.823 7.32291 12.0199 7.52972 12.202C8.54122 13.0926 9.74664 13.7348 11.05 14.0777C11.05 14.0777 11.5634 14.1565 11.5709 14.157C11.7409 14.1661 11.9107 14.1539 12.0809 14.1451C12.348 14.1314 12.6087 14.0592 12.8446 13.9335C12.9963 13.8527 13.0681 13.8126 13.1954 13.7323C13.1954 13.7323 13.2345 13.7059 13.3098 13.6498C13.4336 13.5576 13.51 13.4927 13.613 13.3858C13.6889 13.3069 13.7541 13.2138 13.8045 13.1089C13.8762 12.9593 13.9484 12.6737 13.9771 12.4366C13.999 12.2554 13.9924 12.1564 13.99 12.0951C13.986 11.9965 13.9045 11.895 13.8153 11.8519L13.2822 11.6123C13.2822 11.6123 12.4852 11.2654 11.9977 11.0431C11.9469 11.0199 11.8914 11.0091 11.8355 11.0057C11.7133 10.9982 11.5762 11.0301 11.489 11.122C11.4845 11.1201 11.4238 11.1726 10.7606 11.976C10.724 12.0198 10.6383 12.1148 10.4901 12.1059C10.4677 12.1044 10.4454 12.1012 10.4237 12.0955C10.3636 12.0796 10.3052 12.0587 10.248 12.0345C10.1346 11.9864 10.0948 11.9682 10.0173 11.9348C9.48814 11.7036 9.00249 11.3943 8.57322 11.0158C8.45808 10.9144 8.35102 10.8053 8.24065 10.6983C7.85547 10.3249 7.54012 9.92784 7.30553 9.53615C7.29272 9.51479 7.27299 9.4839 7.25173 9.44934C7.21335 9.38691 7.17102 9.31266 7.15774 9.2617C7.12367 9.12685 7.21407 9.0185 7.21407 9.0185C7.21407 9.0185 7.43718 8.77458 7.54085 8.64194C7.64058 8.51425 7.72667 8.3894 7.78149 8.30039C7.88947 8.1268 7.92367 7.9474 7.86692 7.80899C7.60974 7.18201 7.34441 6.55841 7.07095 5.93836C7.01697 5.81599 6.85644 5.72708 6.71045 5.71023C6.661 5.70452 6.6116 5.69878 6.56195 5.69551C6.43906 5.68952 6.31592 5.69084 6.1932 5.69947Z" fill="#00C700"/>
</svg>
